<svg id="Layer_1" data-name="Layer 1" xmlns="http://www.w3.org/2000/svg" viewBox="0 0 441.63 239.13">
  <path d="M302.85,367.82H417.23v33.81H243.73l117-204.53H262.87V163.29h157Z" transform="translate(-243.73 -163.15)"/>
  <path d="M557.7,256.53v27.6H438.76v-27.6h12.46q-15.88-17-15.87-36.51,0-24.67,17.83-40.79,18.19-16,45.43-16,26.74,0,44.57,16T561,219.29q0,20.76-17.1,37.24h13.8Zm-59.1-65.21q-17.1,0-27.84,9.16a30,30,0,0,0-10.87,23.69q0,15.26,10.5,24.67,10.87,9.4,27.6,9.4t27.6-9.4q10.62-9.41,10.62-24.42a30.37,30.37,0,0,0-10.75-23.69Q514.59,191.32,498.6,191.32Z" transform="translate(-243.73 -163.15)"/>
  <path d="M552.57,401.46H516.06q11.48-9.4,15.75-16.85a32.83,32.83,0,0,0,4.4-17.22q0-15.51-10.87-25.77t-27.23-10.26q-16.73,0-27.48,9.89t-10.75,25.52a34.9,34.9,0,0,0,4.27,17.46q4.15,7.33,16.12,17.22H444q-8.67-16.73-8.67-33.46,0-27.6,17.83-46.16t44.57-18.56q26.62,0,44.94,18.81T561,368.25A69,69,0,0,1,552.57,401.46Z" transform="translate(-243.73 -163.15)"/>
  <g>
    <path d="M574.13,371.93h7v2.8a14.67,14.67,0,0,1,3.46-2.87,8.4,8.4,0,0,1,3.83-.78,9.31,9.31,0,0,1,8.13,4.49,10.53,10.53,0,0,1,8.94-4.49q10.25,0,10.25,12.43v18.76h-7V385.42q0-4.36-1.06-6.17a3.84,3.84,0,0,0-3.58-1.84,4.57,4.57,0,0,0-4.22,2.18q-1.33,2.18-1.33,7v15.68h-7V385.51q0-8.1-4.67-8.1a4.69,4.69,0,0,0-4.32,2.21q-1.35,2.21-1.36,7v15.68h-7V371.93Z" transform="translate(-243.73 -163.15)"/>
    <path d="M623.56,359.3a4.58,4.58,0,0,1,4.55-4.52,4.42,4.42,0,0,1,3.24,1.34,4.32,4.32,0,0,1,1.34,3.21,4.42,4.42,0,0,1-1.34,3.24,4.31,4.31,0,0,1-3.21,1.34A4.57,4.57,0,0,1,623.56,359.3Zm8.07,12.62v30.35h-7V371.93h7Z" transform="translate(-243.73 -163.15)"/>
    <path d="M647.75,378.47v23.81h-7V378.47h-3v-6.54h3V360.8h7v11.13h5.45v6.54h-5.45Z" transform="translate(-243.73 -163.15)"/>
    <path d="M659.25,349.64h7v24.81a12.07,12.07,0,0,1,8.26-3.37,10.67,10.67,0,0,1,8.23,3.33q2.62,2.9,2.62,9.26v18.61h-7v-18q0-3.65-1.29-5.28a5,5,0,0,0-4.16-1.64q-3.68,0-5.17,2.27t-1.46,7.92v14.68h-7V349.64Z" transform="translate(-243.73 -163.15)"/>
  </g>
  <path d="M679.94,192.55l-21.38,12.67q-6-10.4-11.42-13.57Q641.49,188,632.55,188q-11,0-18.21,6.22a19.28,19.28,0,0,0-7.24,15.38q0,12.78,19,20.58l17.42,7.13q21.26,8.6,31.1,21t9.84,30.37q0,24.09-16.06,39.81t-40.15,15.83q-22.73,0-37.55-13.46Q576.11,317.42,572.49,293l26.69-5.88q1.81,15.38,6.33,21.26,8.14,11.31,23.75,11.31,12.33,0,20.47-8.26t8.14-20.92a29.39,29.39,0,0,0-1.41-9.33,23.71,23.71,0,0,0-4.41-7.8,35.3,35.3,0,0,0-7.75-6.67A74.78,74.78,0,0,0,633,260.75l-16.85-7q-35.85-15.16-35.85-44.34,0-19.68,15-32.91t37.44-13.35Q663,163.15,679.94,192.55Z" transform="translate(-243.73 -163.15)"/>
</svg>
